<?xml version="1.0" encoding="utf-8"?>
<!-- Svg Vector Icons : http://www.onlinewebfonts.com/icon -->
<!DOCTYPE svg>
<svg version="1.1" xmlns="http://www.w3.org/2000/svg" xmlns:xlink="http://www.w3.org/1999/xlink" x="0px" y="0px" viewBox="0 0 1000 1000" enable-background="new 0 0 1000 1000" xml:space="preserve">
<metadata> Svg Vector Icons : http://www.onlinewebfonts.com/icon </metadata>
<g><path d="M123.9,826.9c-269.8-369.8,24-654.2,27-657l32.1,34l-16-17l16.1,17c-11,10.4-266.4,259.6-21.3,595.6L123.9,826.9z"/><path d="M876.1,826.9l-37.7-27.5c245.8-336.9-10.3-585.1-21.3-595.5l32.1-34C852.1,172.7,1145.9,457.1,876.1,826.9z"/><path d="M306.4,402.7h37.2l88.8,204.1h-50.8l-17.6-43.2h-79.3l-17,43.2h-49.6L306.4,402.7z M323.7,462.1l-24.8,63.4h49.9L323.7,462.1z"/><path d="M452.9,402.7h76.1c8.8,0,17.7,0.6,26.7,1.9c8.9,1.3,17,3.8,24.1,7.5c7.1,3.8,12.9,9,17.3,15.7c4.4,6.7,6.6,15.6,6.6,26.8c0,11.5-3.2,21.1-9.7,28.7c-6.4,7.6-15,13-25.5,16.3v0.6c6.7,1,12.8,2.8,18.3,5.6c5.5,2.8,10.2,6.3,14.1,10.7c3.9,4.3,7,9.4,9.1,15.1c2.1,5.8,3.2,11.9,3.2,18.5c0,10.8-2.3,19.7-6.9,27c-4.6,7.2-10.6,13-17.9,17.4c-7.3,4.4-15.5,7.6-24.7,9.5c-9.1,1.9-18.2,2.9-27.3,2.9h-83.6L452.9,402.7L452.9,402.7z M497.9,484.3h32.6c3.5,0,6.9-0.4,10.2-1.2c3.4-0.8,6.4-2,9.1-3.8c2.7-1.7,4.9-4,6.5-6.9c1.7-2.9,2.5-6.3,2.5-10.4c0-4.2-0.9-7.7-2.7-10.5s-4.2-4.9-7.1-6.5c-2.9-1.5-6.2-2.6-9.8-3.3c-3.6-0.7-7.2-1-10.7-1h-30.6L497.9,484.3L497.9,484.3z M497.9,568.8h40.4c3.5,0,7-0.4,10.5-1.2c3.6-0.8,6.8-2.1,9.7-4c2.9-1.9,5.2-4.4,7.1-7.5c1.8-3.1,2.7-6.8,2.7-11.3c0-4.8-1.2-8.7-3.6-11.7c-2.4-3-5.4-5.2-9.1-6.8c-3.7-1.5-7.6-2.6-11.8-3.2c-4.2-0.6-8.2-0.9-11.8-0.9h-34V568.8z"/><path d="M740.8,452.6c-3.7-4.6-8.6-8-14.9-10.2c-6.2-2.2-12.1-3.3-17.7-3.3c-3.3,0-6.6,0.4-10.1,1.2c-3.5,0.8-6.7,2-9.8,3.6c-3.1,1.6-5.6,3.8-7.5,6.5c-1.9,2.7-2.9,5.9-2.9,9.8c0,6.2,2.3,10.9,6.9,14.1c4.6,3.3,10.4,6.1,17.5,8.4c7,2.3,14.6,4.6,22.6,6.9c8.1,2.3,15.6,5.6,22.6,9.8c7,4.2,12.8,9.9,17.5,17c4.6,7.1,6.9,16.6,6.9,28.5c0,11.4-2.1,21.2-6.4,29.7c-4.2,8.5-10,15.5-17.2,21.1c-7.2,5.6-15.6,9.7-25.1,12.4c-9.5,2.7-19.6,4-30.1,4c-13.3,0-25.6-2-36.9-6c-11.4-4-21.9-10.6-31.7-19.6l32-35.2c4.6,6.2,10.4,10.9,17.5,14.3c7,3.4,14.3,5,21.8,5c3.6,0,7.3-0.4,11.1-1.3c3.7-0.9,7.1-2.2,10.1-3.9c3-1.7,5.4-3.9,7.2-6.6c1.8-2.7,2.7-5.9,2.7-9.5c0-6.1-2.4-11-7.1-14.6c-4.7-3.6-10.6-6.6-17.7-9.1c-7.1-2.5-14.8-5-23.1-7.5c-8.3-2.5-16-5.9-23.1-10.1c-7.1-4.2-13-9.8-17.7-16.7c-4.7-6.9-7.1-16-7.1-27.4c0-10.9,2.2-20.6,6.5-28.8c4.3-8.3,10.1-15.2,17.3-20.8c7.2-5.6,15.5-9.7,24.9-12.5c9.4-2.8,19.1-4.2,29.1-4.2c11.5,0,22.7,1.6,33.5,4.9c10.8,3.3,20.5,8.8,29.1,16.4L740.8,452.6z"/><path d="M503.9,872.5c-205.5,0-372.7-167.1-372.7-372.5c0-205.4,167.2-372.5,372.7-372.5c205.5,0,372.7,167.1,372.7,372.5C876.6,705.4,709.4,872.5,503.9,872.5z M503.9,174.2c-179.7,0-326,146.1-326,325.8c0,179.6,146.2,325.8,326,325.8c179.7,0,326-146.1,326-325.8C829.9,320.4,683.7,174.2,503.9,174.2z"/></g>
</svg>