<?xml version="1.0" encoding="UTF-8" standalone="no"?>
<svg xmlns:dc="http://purl.org/dc/elements/1.1/" xmlns:cc="http://creativecommons.org/ns#" xmlns:rdf="http://www.w3.org/1999/02/22-rdf-syntax-ns#" xmlns:svg="http://www.w3.org/2000/svg" xmlns="http://www.w3.org/2000/svg" xmlns:sodipodi="http://sodipodi.sourceforge.net/DTD/sodipodi-0.dtd" xmlns:inkscape="http://www.inkscape.org/namespaces/inkscape" width="32px" height="32px" viewBox="0 0 32 32.000001" id="svg2" version="1.1" inkscape:version="0.91 r13725" sodipodi:docname="66.svg">
  <defs id="defs4">
    <pattern y="0" x="0" height="6" width="6" patternUnits="userSpaceOnUse" id="EMFhbasepattern"/>
  </defs>
  <sodipodi:namedview id="base" pagecolor="#ffffff" bordercolor="#666666" borderopacity="1.0" inkscape:pageopacity="0.0" inkscape:pageshadow="2" inkscape:zoom="16" inkscape:cx="19.009621" inkscape:cy="12.50253" inkscape:document-units="px" inkscape:current-layer="layer1" showgrid="true" inkscape:snap-bbox="true" inkscape:bbox-paths="true" inkscape:bbox-nodes="true" inkscape:snap-bbox-edge-midpoints="true" inkscape:snap-bbox-midpoints="true" units="px" inkscape:window-width="1920" inkscape:window-height="1027" inkscape:window-x="-8" inkscape:window-y="-8" inkscape:window-maximized="1">
    <inkscape:grid type="xygrid" id="grid3336"/>
  </sodipodi:namedview>
  
  <g inkscape:label="Layer 1" inkscape:groupmode="layer" id="layer1" transform="translate(0,-1020.3622)">
    <path style="color:#000000;font-style:normal;font-variant:normal;font-weight:normal;font-stretch:normal;font-size:medium;line-height:normal;font-family:sans-serif;text-indent:0;text-align:start;text-decoration:none;text-decoration-line:none;text-decoration-style:solid;text-decoration-color:#000000;letter-spacing:normal;word-spacing:normal;text-transform:none;direction:ltr;block-progression:tb;writing-mode:lr-tb;baseline-shift:baseline;text-anchor:start;white-space:normal;clip-rule:nonzero;display:inline;overflow:visible;visibility:visible;opacity:1;isolation:auto;mix-blend-mode:normal;color-interpolation:sRGB;color-interpolation-filters:linearRGB;solid-color:#000000;solid-opacity:1;fill:#000000;fill-opacity:1;fill-rule:nonzero;stroke:none;stroke-width:1;stroke-linecap:round;stroke-linejoin:round;stroke-miterlimit:4;stroke-dasharray:none;stroke-dashoffset:0;stroke-opacity:1;color-rendering:auto;image-rendering:auto;shape-rendering:auto;text-rendering:auto;enable-background:accumulate" d="M 18.996094 8 C 18.41411 8 17.887122 8.1502781 17.517578 8.5175781 C 17.148034 8.8848781 16.993762 9.4142531 16.996094 10.001953 L 16.996094 21 C 16.996094 21.5834 17.149727 22.110716 17.517578 22.478516 C 17.885429 22.846416 18.41276 23 18.996094 23 L 21.996094 23 C 23.451311 23 24.725361 22.087609 25.601562 20.724609 C 26.477764 19.361709 26.996094 17.5253 26.996094 15.5 C 26.996094 13.4748 26.477765 11.638391 25.601562 10.275391 C 24.725361 8.9123906 23.451311 8 21.996094 8 L 18.996094 8 z M 14.792969 8.0019531 C 14.69693 8.0076486 14.597188 8.0236938 14.496094 8.0507812 L 6.4960938 10.193359 C 5.6873406 10.410059 5.0058594 11.266916 5.0058594 12.103516 C 5.0058594 12.940216 5.6873406 13.427637 6.4960938 13.210938 L 14.496094 11.068359 C 15.304848 10.851659 15.986328 9.9968563 15.986328 9.1601562 C 15.986328 8.4281312 15.465241 7.9620846 14.792969 8.0019531 z M 18.996094 9 L 21.996094 9 C 23.033876 9 24.009217 9.6489062 24.759766 10.816406 C 25.510314 11.984006 25.996094 13.6473 25.996094 15.5 C 25.996094 17.3528 25.510314 19.018047 24.759766 20.185547 C 24.009217 21.353047 23.033876 22 21.996094 22 L 18.996094 22 C 18.579427 22 18.356758 21.903984 18.224609 21.771484 C 18.092461 21.639384 17.996094 21.4167 17.996094 21 L 17.996094 10 C 17.994394 9.5796 18.091204 9.3592156 18.222656 9.2285156 C 18.354112 9.0978156 18.578077 9.0019531 18.996094 9.0019531 L 18.996094 9 z M 14.701172 9.0527344 C 14.885985 9.0780984 15.003906 9.2205031 15.003906 9.4238281 C 15.003906 9.6952281 14.795342 9.9705813 14.496094 10.050781 L 6.4960938 12.193359 C 6.1968469 12.273359 5.9882813 12.111144 5.9882812 11.839844 C 5.9882812 11.568544 6.1968468 11.291137 6.4960938 11.210938 L 14.496094 9.0683594 C 14.570906 9.0483594 14.639568 9.0442797 14.701172 9.0527344 z M 14.792969 12.001953 C 14.69693 12.007649 14.597188 12.023694 14.496094 12.050781 L 6.4960938 14.193359 C 5.6873406 14.410059 5.0058594 15.266916 5.0058594 16.103516 C 5.0058594 16.940216 5.6873406 17.427637 6.4960938 17.210938 L 14.496094 15.068359 C 15.304848 14.851659 15.986328 13.996856 15.986328 13.160156 C 15.986328 12.428131 15.465241 11.962085 14.792969 12.001953 z M 14.701172 13.052734 C 14.885985 13.078098 15.003906 13.220503 15.003906 13.423828 C 15.003906 13.695228 14.795342 13.970581 14.496094 14.050781 L 6.4960938 16.193359 C 6.1968469 16.273359 5.9882813 16.111144 5.9882812 15.839844 C 5.9882812 15.568544 6.1968468 15.291137 6.4960938 15.210938 L 14.496094 13.068359 C 14.570906 13.048359 14.639568 13.04428 14.701172 13.052734 z M 14.792969 16.001953 C 14.69693 16.007649 14.597188 16.023694 14.496094 16.050781 L 6.4960938 18.193359 C 5.6873406 18.410059 5.0058594 19.266916 5.0058594 20.103516 C 5.0058594 20.940216 5.6873406 21.427637 6.4960938 21.210938 L 14.496094 19.068359 C 15.304848 18.851659 15.986328 17.996856 15.986328 17.160156 C 15.986328 16.428131 15.465241 15.962085 14.792969 16.001953 z M 14.701172 17.052734 C 14.885985 17.078098 15.003906 17.220503 15.003906 17.423828 C 15.003906 17.695228 14.795342 17.970581 14.496094 18.050781 L 6.4960938 20.193359 C 6.1968469 20.273359 5.9882813 20.111144 5.9882812 19.839844 C 5.9882812 19.568544 6.1968468 19.291137 6.4960938 19.210938 L 14.496094 17.068359 C 14.570906 17.048359 14.639568 17.04428 14.701172 17.052734 z M 14.792969 20.001953 C 14.69693 20.007649 14.597188 20.023694 14.496094 20.050781 L 6.4960938 22.193359 C 5.6873406 22.410059 5.0058594 23.266916 5.0058594 24.103516 C 5.0058594 24.940216 5.6873406 25.427637 6.4960938 25.210938 L 14.496094 23.068359 C 15.304848 22.851659 15.986328 21.996856 15.986328 21.160156 C 15.986328 20.428131 15.465241 19.962085 14.792969 20.001953 z M 14.701172 21.052734 C 14.885985 21.078098 15.003906 21.220503 15.003906 21.423828 C 15.003906 21.695228 14.795342 21.970581 14.496094 22.050781 L 6.4960938 24.193359 C 6.1968469 24.273359 5.9882813 24.111144 5.9882812 23.839844 C 5.9882812 23.568544 6.1968468 23.291137 6.4960938 23.210938 L 14.496094 21.068359 C 14.570906 21.048359 14.639568 21.04428 14.701172 21.052734 z " transform="translate(0,1020.3622)" id="path5320"/>
  </g>

	
	
	
	<metadata>
		<rdf:RDF xmlns:rdf="http://www.w3.org/1999/02/22-rdf-syntax-ns#" xmlns:rdfs="http://www.w3.org/2000/01/rdf-schema#" xmlns:dc="http://purl.org/dc/elements/1.1/">
			<rdf:Description about="https://iconscout.com/legal#licenses" dc:title="Car, Headlight, Low, Beam, Light, Side" dc:description="Car, Headlight, Low, Beam, Light, Side" dc:publisher="Iconscout" dc:date="2016-12-14" dc:format="image/svg+xml" dc:language="en">
				<dc:creator>
					<rdf:Bag>
						<rdf:li>Jemis Mali</rdf:li>
					</rdf:Bag>
				</dc:creator>
			</rdf:Description>
		</rdf:RDF>
    </metadata></svg>
