<?xml version="1.0" encoding="UTF-8" standalone="no"?>
<!-- Created with Inkscape (http://www.inkscape.org/) -->

<svg
   xmlns:dc="http://purl.org/dc/elements/1.1/"
   xmlns:cc="http://creativecommons.org/ns#"
   xmlns:rdf="http://www.w3.org/1999/02/22-rdf-syntax-ns#"
   xmlns:svg="http://www.w3.org/2000/svg"
   xmlns="http://www.w3.org/2000/svg"
   xmlns:sodipodi="http://sodipodi.sourceforge.net/DTD/sodipodi-0.dtd"
   xmlns:inkscape="http://www.inkscape.org/namespaces/inkscape"
   width="297mm"
   height="210mm"
   id="svg2945"
   version="1.1"
   inkscape:version="0.47 r22583"
   sodipodi:docname="Myoujin_torii.svg">
  <defs
     id="defs2947">
    <inkscape:perspective
       sodipodi:type="inkscape:persp3d"
       inkscape:vp_x="0 : 372.04724 : 1"
       inkscape:vp_y="0 : 1000 : 0"
       inkscape:vp_z="1052.3622 : 372.04724 : 1"
       inkscape:persp3d-origin="526.18109 : 248.03149 : 1"
       id="perspective2954" />
    <inkscape:perspective
       id="perspective2931"
       inkscape:persp3d-origin="0.5 : 0.33333333 : 1"
       inkscape:vp_z="1 : 0.5 : 1"
       inkscape:vp_y="0 : 1000 : 0"
       inkscape:vp_x="0 : 0.5 : 1"
       sodipodi:type="inkscape:persp3d" />
    <inkscape:perspective
       id="perspective2931-1"
       inkscape:persp3d-origin="0.5 : 0.33333333 : 1"
       inkscape:vp_z="1 : 0.5 : 1"
       inkscape:vp_y="0 : 1000 : 0"
       inkscape:vp_x="0 : 0.5 : 1"
       sodipodi:type="inkscape:persp3d" />
    <inkscape:perspective
       id="perspective2931-7"
       inkscape:persp3d-origin="0.5 : 0.33333333 : 1"
       inkscape:vp_z="1 : 0.5 : 1"
       inkscape:vp_y="0 : 1000 : 0"
       inkscape:vp_x="0 : 0.5 : 1"
       sodipodi:type="inkscape:persp3d" />
    <inkscape:perspective
       id="perspective2991"
       inkscape:persp3d-origin="0.5 : 0.33333333 : 1"
       inkscape:vp_z="1 : 0.5 : 1"
       inkscape:vp_y="0 : 1000 : 0"
       inkscape:vp_x="0 : 0.5 : 1"
       sodipodi:type="inkscape:persp3d" />
  </defs>
  <sodipodi:namedview
     inkscape:document-units="mm"
     pagecolor="#ffffff"
     bordercolor="#666666"
     borderopacity="1.0"
     inkscape:pageopacity="0.0"
     inkscape:pageshadow="2"
     inkscape:zoom="0.61399264"
     inkscape:cx="917.60342"
     inkscape:cy="402.44985"
     inkscape:current-layer="layer1"
     id="namedview2949"
     showgrid="false"
     inkscape:window-width="1596"
     inkscape:window-height="770"
     inkscape:window-x="220"
     inkscape:window-y="330"
     inkscape:window-maximized="0" />
  <metadata
     id="metadata2951">
    <rdf:RDF>
      <cc:Work
         rdf:about="">
        <dc:format>image/svg+xml</dc:format>
        <dc:type
           rdf:resource="http://purl.org/dc/dcmitype/StillImage" />
        <dc:title />
      </cc:Work>
    </rdf:RDF>
  </metadata>
  <g
     inkscape:label="Layer 1"
     inkscape:groupmode="layer"
     id="layer1">
    <path
       id="path2486"
       d="m 187.60285,688.60803 c 1.8865,-6.2965 6.0123,-12.1324 10.9123,-15.4301 4.8118,-3.2487 5.7722,-3.3124 47.1331,-3.3124 41.4785,0 42.3017,0.0588 47.1723,3.3418 5.7134,3.8416 11.6571,12.0001 11.6571,15.9838 0,2.6068 -2.548,2.7244 -58.9323,2.7244 h -58.9225 l 0.98,-3.3075 z m 550.7551,0.588 c 0,-3.7534 7.7616,-14.9695 11.9707,-17.3068 2.6215,-1.4553 13.867,-1.9355 46.2707,-1.9747 42.0126,-0.049 42.8946,0.01 47.7162,3.2634 4.9,3.2977 9.0258,9.1336 10.9025,15.4301 l 0.9947,3.3075 h -58.9323 c -56.35,-0.006 -58.9225,-0.1225 -58.9225,-2.7195 z m -522.1195,-29.988 c 0.01,-4.2434 1.6562,-94.7023 3.6652,-201.0127 2.009,-106.3104 3.6554,-201.3998 3.6652,-211.3076 l 0.01,-18.0075 h 5.8849 5.8849 v -26.4551 -26.46 h -5.1499 -5.1499 v -12.9997 c 0,-7.1491 0.4312,-21.0406 0.9653,-30.87 l 0.9555,-17.8703 h 30.1546 30.1448 l -0.9555,17.8703 c -0.5341,9.8294 -0.9653,23.7209 -0.9653,30.87 v 12.9997 h -4.4492 -4.4394 l 0.4018,26.0925 c 0.392,25.7985 0.441,26.0974 3.7142,26.5629 2.9743,0.4214 3.3124,1.2985 3.3614,8.82 0.1225,21.0308 -7.6489,414.932 -8.3251,421.7724 l -0.7644,7.7175 h -29.302 -29.3118 l 0.006,-7.7224 z m 550.0446,-8.82 c -0.01,-9.0944 -1.6562,-103.5223 -3.6652,-209.8376 -4.4786,-237.65 -4.4296,-211.3566 -0.3626,-211.9348 3.2732,-0.4655 3.3124,-0.7644 3.7142,-26.5629 l 0.4018,-26.0925 h -4.4492 -4.4394 v -24.0492 c 0,-13.2251 -0.4214,-27.1166 -0.9359,-30.87 l -0.9359,-6.8208 h 30.3457 30.3555 v 15.2047 c 0,8.3643 0.4312,22.2558 0.9555,30.87 l 0.9555,15.6653 h -6.1446 -6.1348 l 0.4018,26.0925 0.4018,26.0925 5.3998,0.4508 5.3998,0.4508 0.7938,10.5742 c 0.7007,9.2904 8.4329,399.6146 8.3055,419.587 l -0.049,7.7175 h -30.1448 -30.1448 l -0.0245,-16.5375 z M 61.805147,202.42023 v -23.52 h 85.299203 85.309 v 23.52 23.52 h -85.309 -85.299203 v -23.52 z m 217.662903,0 v -23.52 h 241.9473 241.9375 v 23.52 23.52 h -241.9375 -241.9473 v -23.52 z m 529.4793,0 v -23.52 h 86.0489 86.0391 v 23.52 23.52 h -86.0391 -86.0489 v -23.52 z m -611.8385,-30.8651 c 0,-5.0862 0.2303,-5.1303 14.798,-2.7244 8.3545,1.3769 10.2116,2.1805 10.2116,4.41 0,2.4402 -1.3132,2.7244 -12.5097,2.7244 h -12.4999 v -4.41 z m 91.1841,1.6856 c 0,-3.2046 2.2001,-3.9641 15.9348,-5.4782 l 9.3002,-1.0241 -0.4802,4.2434 -0.49,4.2483 -12.1373,0.4263 c -11.1524,0.392 -12.1275,0.196 -12.1275,-2.4157 z m 211.7927,-28.1456 v -30.87 h 20.5947 20.5849 v 30.87 30.87 h -20.5849 -20.5947 v -30.87 z m 229.4474,26.2689 v -4.5962 l 9.1875,1.0143 c 13.5436,1.4945 15.8123,2.2687 15.8123,5.4047 0,2.5088 -1.2152,2.7783 -12.4999,2.7783 h -12.4999 v -4.6011 z m 91.1841,1.862 c 0,-2.2687 1.8865,-3.0429 11.0054,-4.5129 6.0466,-0.9751 11.6767,-1.3573 12.4999,-0.8477 0.8232,0.5096 1.4945,2.5382 1.4945,4.5129 0,3.5231 -0.2205,3.5868 -12.4999,3.5868 -11.2161,0 -12.4999,-0.2842 -12.4999,-2.7391 z m -714.567,-64.2341 c -22.922203,-1.078 -42.394803,-2.2001 -43.286603,-2.4941 -0.882,-0.294 -3.3957,-7.036402 -5.6007,-14.984202 l -3.9984,-14.445196 10.8045,0.9163 c 50.274003,4.2483 89.434803,4.6403 463.961403,4.6403 357.4011,0 385.6937,-0.1813 421.1207,-2.7097 20.8936,-1.4896 38.3082,-2.3814 38.7002,-1.9845 0.6517,0.6468 -6.1348,27.420398 -7.1393,28.189698 -0.2303,0.1764 -12.6616,1.2005 -27.6311,2.2834 -40.1114,2.891 -786.8077,3.4153 -846.9307,0.588 z m 32.8643,-30.144798 c -32.6144,-1.1858 -109.044603,-5.5811 -111.788603,-6.4288 -1.7591,-0.539 -7.301,-15.3125 -6.174,-16.4493 0.4312,-0.4312 21.5257,0.7448 46.8734,2.6117 l 46.079603,3.3957 386.8109,0.539 c 382.935,0.5341 420.5964,0.196 477.2698,-4.2973 35.41225,-2.8077 44.11955,-3.2095 44.11955,-2.0286 0,0.6566 -1.0731,4.5766 -2.3716,8.7171 l -2.3716,7.5264 -52.41525,3.6064 -52.4055,3.6064 -370.6409,0.1911 c -203.8449,0.098 -385.1939,-0.343 -402.9858,-0.9898 z m -11.0348,-19.992 c -5.2528,-0.2303 -31.727502,-1.8179 -58.829403,-3.5329 -51.058,-3.2291 -52.9445,-3.5721 -52.9445,-9.7314 0,-2.5235 1.9404,-2.4843 54.0715,1.0045 76.704603,5.1303 132.932103,5.8555 451.873103,5.8408 323.4196,-0.0147 372.5617,-0.6664 454.1418,-5.9878 26.91075,-1.7542 49.26945,-2.8616 49.68105,-2.4549 0.4018,0.4067 0.1029,2.3814 -0.6615,4.3953 -1.3132,3.4643 -2.1609,3.7044 -15.8466,4.5325 -7.9527,0.4802 -23.39745,1.5484 -34.31955,2.3765 -56.6391,4.2777 -84.6279,4.5374 -455.9401,4.2581 -209.916,-0.1568 -385.9583,-0.4704 -391.2258,-0.7007 z" />
  </g>
</svg>
