<?xml version="1.0" encoding="utf-8"?>
<!-- Svg Vector Icons : http://www.onlinewebfonts.com/icon -->
<!DOCTYPE svg PUBLIC "-//W3C//DTD SVG 1.1//EN" "http://www.w3.org/Graphics/SVG/1.1/DTD/svg11.dtd">
<svg version="1.1" xmlns="http://www.w3.org/2000/svg" xmlns:xlink="http://www.w3.org/1999/xlink" x="0px" y="0px" viewBox="0 0 1000 1000" enable-background="new 0 0 1000 1000" xml:space="preserve">
<metadata> Svg Vector Icons : http://www.onlinewebfonts.com/icon </metadata>
<g><g><g><path d="M330.9,153.3c19,4.6,36.2,11.3,51,23.4c8.5,6.9,5.6,13.9-4.7,13.9c-0.4,0-0.9,0-1.3,0c-11.5-0.6-22.7-1.4-34.1-1.4c-3,0-6.1,0.1-9.2,0.2c-11.4,0.5-12.9,7.3-3,13c18.2,10.4,36.7,18.4,56.4,23.4c11,2.8,18.6,9.8,16.5,17.1c-1.3,4.5-2.6,8.7-4.1,12.9c-2,5.4-0.4,8.1,4.6,9.9c7.4,2.6,14.7,5.9,22.3,7.8c25.3,6.6,50.9,9.8,76.8,9.8c10.8,0,21.6-0.6,32.5-1.7c22.8-2.4,45.3-6.2,66.5-15.3c5.8-2.5,8-5.2,5.5-11.7c-1.5-4-2.8-8.2-4-12.5c-2-6.9,5.6-13.8,16.7-16.5c19.9-4.9,38.3-12.8,56.1-23.2c9.8-5.7,8.3-12.8-3.1-13.2c-1.7-0.1-3.4-0.1-5.1-0.1c-13,0-25.7,1.5-38.7,3.1c-1.1,0.1-2.1,0.2-3,0.2c-8.8,0-10.7-5.7-2.9-12.4c14.5-12.3,30.7-20.3,48.1-26c10.9-3.5,12.8-11.2,3.9-18.3c-11-8.6-22.1-16.9-33.4-25c-0.5-0.4-1.3-0.5-2.2-0.5c-1.8,0-4,0.6-5.4,1.4c-18.3,10.8-36.1,22.1-54.5,32.6c-4.8,2.7-5.9,5.2-4.8,10.1c0.8,3.6,1.4,7.1,2.1,10.9c1,6-6.6,12.2-17,13.7c-3.1,0.5-5.7,0.7-7.6,0.7c-4.4,0-5.2-1.1-1.2-2.6c3.5-1.3,7-2.3,10.6-3c7.1-1.4,8.4-5.3,6.9-11.7c-0.8-3.5-1.4-7.1-2-10.8c-1-6,7.1-13.5,17.6-18.1c11-4.7,21.4-10.3,31.4-16.5c9.7-6,9.8-17.1-0.2-22.5c-15.1-8.1-33.1-14.9-45.4-16.7c-8.2-1.2-16.4-2.4-24.7-3.6c-11.3-1.6-29.6-3-41-3c-1.5,0-3,0-4.5,0c-11.4,0-28.8,1.2-38.8,2.7c-6,0.9-12.1,1.7-18.1,2.4c-19.7,2.2-37.4,9.1-55.4,18.9c-10,5.5-9.6,14.8,0.5,20.1c11.7,6.2,23.2,12.2,34.7,18.3c10.1,5.3,17.5,14.6,16.4,20.7c-0.6,3.6-1.2,7.3-2,11c-0.8,4.2,0.3,6.6,4.6,7.8c3.9,1,7.8,2.2,11.7,3.3c5.7,1.7,5.9,3.4,0.8,3.4c-0.6,0-1.3,0-2-0.1c-4.3-0.3-8.5-0.8-12.7-1.6c-12.2-2.2-12.2-2.5-9.9-14.5c0.8-4,1.8-8,1.9-12.1c0.1-2-1-5-2.5-5.9c-15.4-9-30.9-17.9-47.1-27.2c-4.3-2.5-9.6-3.6-15-3.6c-7,0-14.2,2-19.3,6c-6.5,5-13.2,10.2-20.2,15.6C318,143.6,319.8,150.7,330.9,153.3L330.9,153.3z M512.3,250.3c-2.2,3.4-5.4,5.7-9.2,6c-0.4,0-0.7,0-1,0c-3.6,0-6.8-1.8-9.2-5.3c-2.3-3.4-1.6-4.1,1.4-4.1c1.9,0,4.6,0.3,7.9,0.4c0.4,0,0.9,0,1.3,0c3.5,0,6.3-0.4,8-0.4C513.6,246.9,514.1,247.6,512.3,250.3z M499,237.5c0.2,0,0.4,0,0.6,0c0.7,0,1.6,0,2.4,0c3,0,5.5-0.2,7.3-0.2c2.8,0,3.8,0.4,1.8,2.4c-2,1.9-4.6,2.9-7.6,3.2c-0.6,0.1-1.1,0.1-1.7,0.1c-3,0-5.4-0.9-7.4-2.5C490.9,237.6,493.4,237.5,499,237.5z M502.2,234.8c-0.1,0-0.3,0-0.4,0c-6.9-0.2-13.4-5.3-13.4-10.6c0.1-6.7,7.4-14.1,13.9-14.1c0.2,0,0.3,0,0.4,0c6.2,0.3,13.4,7.9,13.5,14.2C516.3,229.5,509,234.8,502.2,234.8z M519.7,150.1c-1.9,4.2-4.8,8-8.2,10.3c-3,2.1-6,3.1-9.1,3.1c-2.5,0-5.1-0.7-7.7-2.1c-3.8-2.1-7-5.8-9.2-10.2c-1.6-3.3-1.2-4.5,1-4.5c2.4,0,6.7,1.4,12.4,3c1.4,0.4,2.7,0.6,4.1,0.6c1.1,0,2.3-0.1,3.5-0.4c6.5-1.6,11-3.6,13-3.6C520.7,146.3,520.9,147.3,519.7,150.1z M494,98.1c2.8-1.7,5.7-2.5,8.5-2.5c3.7,0,7.2,1.4,10.4,4.2c3.5,2.9,6.2,6.3,7.9,10c2.9,6.5,2.1,20.3-3.2,26.8c-3.2,3.9-7.8,6.7-13,7.4c-0.9,0.1-1.7,0.2-2.6,0.2c-4.8,0-9.1-1.7-12.6-5.1c-4.4-4.2-4.5-6.5-1.8-6.5c1.3,0,3.3,0.5,5.9,1.6c2.1,0.9,4.3,1.2,6.5,1.4c0.4,0,0.8,0.3,1.2,0.3c2.3,0,4.7-0.4,7.1-1.3c2.8-1,5.1-3.1,7.4-5.4c1.3-1.3,1.9-1.9,1.8-1.9c-0.2,0-2.7,1.6-7.6,3.5c-2.3,0.9-4.7,1.4-7.4,1.4c-1,0-2-0.4-3-0.5c-1.4-0.2-2.7-0.2-4.2-0.7c-6.5-2.2-12.8-5.7-13.2-12.8C481.6,109.4,486.6,102.5,494,98.1z"/><path d="M502,232.2l0.1,2.6v-2.6L502,232.2z"/><path d="M956.3,645.8c-2.7,1.7-2.1,7,1.2,11.8c2.1,3,4.1,5.8,6.1,8.7c4.6,6.6,1,25.8-6,29.8c-33.1,18.3-66.2,36.5-99.5,54.5c-2.5,1.4-5.2,2-7.9,2c-5.9,0-11.8-3-15.6-8.1c-2.3-3-4.5-6-6.7-9c-1.9-2.6-6-3.9-10.9-3.9c-4.5,0-9.7,1.1-14.7,3.1c-2.2,0.9-4.4,1.7-6.7,2.2c-11.2,2.4-16,4.8-11.2,15.1c5.3,11.6,10.2,22.3,15,33c3.6,7.8,15.6,13.8,25.6,13.8c2.9,0,5.7-0.5,8-1.7c23.4-11.7,46.7-23.4,69.9-35.3c27.1-14,54.3-27.9,74.7-51.6c1.9-2.2,4-4.4,6.1-6.6c3.5-3.5,6.3-11.2,6.3-17c0-5.9-6.1-17.6-13.6-26.1c-0.6-0.7-1.2-1.3-1.8-2c-6.6-7.5-13.7-12.8-17.2-12.8C957,645.5,956.6,645.6,956.3,645.8z"/><path d="M18.6,705.7c15.2,16,31.2,31.1,51.2,41.2c29.1,14.7,58.3,29.4,86.8,45.2c6.8,3.8,13.4,6,20,6c4.7,0,9.5-1.1,14.4-3.5c3.3-1.6,6.9-4.3,8.5-7.4c7.6-15.4,14.5-31,21.6-46.6c0.3-0.7,0.5-1.3,0.7-1.9c0.3-1-4.4-2.1-10.5-2.2c-3.8-0.1-7.4-0.4-10.9-1.3c-3.7-0.9-7.3-2.4-10.8-4.1c-1.8-0.8-3.9-1.3-5.9-1.3c-4.3,0-8.7,1.9-11.2,5.3c-2.2,3-4.4,6-6.6,9c-3.9,5.3-9.6,8.3-15.5,8.3c-3.1,0-6.2-0.8-9.2-2.4c-32.5-17.7-64.9-35.4-97.3-53.4c-2.4-1.3-4.7-3.8-5.7-6.3c-4.6-11.2-6.4-22.2,4-31.9c1.4-1.3,2.5-2.9,3.6-4.7c1.7-2.8,1-6.3-1.7-7.9c-0.3-0.2-0.7-0.3-1.1-0.3c-3.4,0-10.7,5.2-17.3,12.8c-0.6,0.7-1.2,1.4-1.8,2.1c-7.6,8.5-13.7,20.2-13.7,26.1c0,5.9,1.9,12.5,4.3,14.9C15.8,702.8,17.2,704.2,18.6,705.7z"/><path d="M482.6,584.9c0,2,0,4,0,6c0,5.8-0.6,8.7-1.6,8.7c-0.9,0-2.2-2.7-3.7-8.1c-1.8-6.6-3.6-13.4-5.6-20.1c-0.7-2.5-3.8-5.5-6.2-5.9c-3.7-0.7-7.5-1-11.6-1.3c-0.3,0-0.6,0-0.9,0c-5.6,0-5.5,3.8,0.2,8.9c6.1,5.3,3,11-6.9,12.7c-6.1,1-12,2.1-17.9,3.1c-14.5,2.4-29,4.3-43.5,4.3c-11.9,0-23.8-1.3-35.7-4.8c-0.7-0.2-1.8-0.4-2.6-0.4c-0.6,0-1.1,0.1-1.2,0.3c-3.7,6.1-7.4,12.2-10,18.7c-0.3,0.7,6.6,4.3,10.2,6.4c0.4,0.2,0.9,0.4,1.4,0.4c0.8,0.2,0.1,0.8-1.7,0.9c-0.4,0-0.7,0-1,0c-0.8,0-1.5,0-2.3-0.2c-0.5,0-1-0.1-1.5-0.1c-6.8,0-12.7,6.2-14.1,14.7c-1.5,9.1,5.7,8.2,10.4,8.5c4.7,0.3,9.4,0.4,14.1,0.4c0.8,0,1.7,0,2.5,0c0.4,0,0.7,0,1,0c8.7,0,15.7,0.6,15.7,1.4c0,0.8-8.4,2.1-18.8,2.9c-6.3,0.5-12.6,0.9-18.9,1.5c-2.1,0.2-4.8,0.4-6.2,1.4c-0.2,0.8-0.4,1.6-0.8,2.2c-10.5,13.6-8.5,29.1-4.9,43.8l0.3,1.3c2.3,9.1,4.6,18.4,8,27.1c2.1,5.4,4,13.4-3.3,20.9c-3.1,3.1-3.8,4.8,1.1,10c4,4.3,7.6,8.8,10.6,12.6c0.8,1,1.4,2.1,2,3.3c2.9,1.8,6.1,3.2,9.5,3.2c4.2,0,8-1.9,10.9-5.4c4.1-5.9,6.6-12.9,8-20.7c0.4-5.8-0.9-10-2.4-10c-0.1,0-0.2,0-0.2,0c-0.2,0-0.3,0.1-0.5,0.1c-1.7,0-0.9-3.7,3.9-5.8c1.8-0.8,3.8-1.1,6-1.1c1.1,0,2.2,0.1,3.5,0.3c1.5-0.1,2.9-0.2,3.9-0.2c4,0,8.8,0.4,13.8,1.1l10.1,1.5l24.9,3.6c2.2,0.3,4.3,1,6.3,1.8c12.3,1.5,24.6,2.9,36.9,3.8c1-0.1,2.1-0.6,3.1-0.6h48.4c1.8,0,3.6,0.6,5.4,0.9c10.5-0.6,20.8-1.4,31.2-2.5c2.9-1.8,6.2-3,9.7-3.6l22.4-3.3l12.3-1.8c5.6-0.8,11-1.3,15.2-1.3c1.2,0,2.7,0.1,4.2,0.2c0.6,0,1.3-0.2,1.9-0.2c2.4,0,4.5,0.4,6.4,1.3c5.3,2.4,6.4,6.2,4.9,6.2c-0.2,0-0.3,0-0.5-0.1c-0.1,0-0.2-0.1-0.4-0.1c-1.6,0-3.4,4.3-3.2,10.5c1.6,7.5,4.4,14.4,8.5,20.2c3.1,3.4,7.1,5.3,11.1,5.3c3,0,5.7-1.1,8-2.6c1.3-2.2,2.7-4.3,3.7-5.5c3.9-4.9,7.7-9.7,11.7-14.3c1.1-1.3,1.6-2,1.6-2.6c0,0,0-0.1,0-0.1c0-0.5-0.4-1-1-1.7c-9.1-9.8-6.6-20-3.9-26.9c3.4-8.7,5.6-18.3,7.7-27.5l0.7-3.1c2-8.6,2.5-15.7,1.5-21.7c-0.4-2.2-0.1-3.8-0.2-5.7c-1.2-3.4-2.8-6.7-5.3-9.9c-2.6-3.4-4.5-4.7-9-4.7c-6.3-0.1-12.6-0.5-18.8-1c-10.4-0.8-18.8-2.2-18.7-3c0-0.8,6.9-1.4,15.4-1.4c0.3,0,0.5,0,0.8,0c0.7,0,1.5,0,2.2,0c4.6,0,9.3-0.1,13.9-0.3c3.9-0.2,11-2.7,11-4.2c0.1-4.8-1.9-10-4.2-14.3c-1.7-3.1-4.2-5.5-7.8-5.5c-1.1,0-2.3,0.2-3.6,0.8c-0.7,0.3-1.5,0.3-2.3,0.3c-0.3,0-0.6,0-0.9,0c-1.8-0.1-2.5-0.8-1.4-1.1c0.6-0.2,1.3-0.4,1.9-0.5c12-3.4,13.7-7.6,6.3-17.9c-2.1-3-6.8-6.7-9.7-6.7c-0.2,0-0.5,0-0.7,0.1c-11.8,3.1-23.6,4.3-35.4,4.3c-15.2,0-30.3-2-45.6-4.7c-5.6-1-11.2-1.9-17.2-2.9c-9.5-1.6-11.7-7.6-5-13.3c6.3-5.4,7.1-9.4,2.1-9.4c-0.3,0-0.7,0-1,0.1c-3.1,0.3-6,0.5-8.9,0.5c-0.7,0-1.5,0-2.2,0c-0.3,0-0.5,0-0.8,0c-5.4,0-7.4,2.5-8.7,7.5c-1.7,6.8-3.6,13.5-5.4,20.4c-1.4,5.4-2.8,8-3.8,8c-1,0-1.7-2.9-1.7-8.7c0-1.4,0-2.9,0-4.3c0-11.4-6.2-10.6-17.5-11.4c-0.6,0-1.3-0.1-1.9-0.2c-2.9-0.5-5.5-0.9-7.7-0.9C486.1,573.8,482.6,576.5,482.6,584.9L482.6,584.9z M408.2,686.2C408.2,686.2,408.2,686.2,408.2,686.2c-0.9,0-4.5-4.2-8.2-9.5c-1.6-2.3-4.3-3.4-7.5-3.4c-4.6,0-10.2,2.2-15.5,6.2c-0.7,0.6-1.4,1.1-2.1,1.7c-8.5,6.6-15.8,11.6-17.1,11.6c-0.1,0-0.1,0-0.2-0.1c-0.6-0.6,5.9-7.3,14.4-14.8c8.4-7.5,16.8-14.9,25.2-22.3c8.2-7.3,15.5-12.8,16.8-12.8c0.1,0,0.1,0,0.1,0c0.8,0.5-7,6.3-10.8,17.1c-0.8,2.4-1.3,4.8-1.3,7.2C402.1,678.5,409,686,408.2,686.2z M463.2,693.1c-1.1,0-3.9-0.8-6.9-2.1c-2.3-1-4.6-1.9-7-2.5c-4.6-1.3-9.4-1.4-14.1-2.4c-0.9-0.2-1.8-0.7-2.7-1.3c-1.4-0.9-1.7-2.7-0.7-3.9c0.7-0.8,1.4-1.5,2.2-1.8c0.7-0.3,1.5-0.4,2.4-0.4c1.1,0,2.2,0.2,3.1,0.7c4.2,2,8.3,4.1,12.4,6.2c6.8,3.5,12.1,6.8,11.8,7.5C463.7,693,463.5,693.1,463.2,693.1z M598.7,658.7c-2.3-6.1-3.4-8.9-2.3-8.9c0.9,0,3,1.6,6.8,4.6c11,8.5,21.4,17.5,30.9,27.4c4.5,4.7,5.8,7.3,4.6,7.3c-1,0-3.4-1.5-7.3-4.5c-2.1-1.7-4.2-3.3-6.2-5c-5.1-4.1-10.7-6.3-15.3-6.3c-3.4,0-6.2,1.2-7.8,3.6c-3.8,5.6-7.6,10.1-8.4,10.1l0,0c-0.8,0,6-7.4,6.5-18.8C600.3,664.9,599.8,661.8,598.7,658.7z M548.5,686.5c4-2.2,8.1-4.4,12.3-6.4c1.5-0.8,3.4-1,5.2-1c1.1,0,2.3,0.1,3.3,0.2c1.1,0.1,2.5,2.6,2.6,4.1c0,1-1.7,2.9-2.9,3.1c-5.4,1.1-10.9,2.2-16.3,3.3c-2.5,0.5-4.5,0.7-5.8,0.7C543.3,690.7,543.6,689.1,548.5,686.5L548.5,686.5z M475.4,636.1c0.2,0,0.4,0,0.6,0c3,0.4,4.5,3.2,3.3,6.3c-0.6,1.5-1.4,2.2-2.3,2.2c-1.1,0-2.2-0.9-3.2-2.8C472.1,638.5,472.8,636.1,475.4,636.1z M526.1,636.2c0.2,0,0.4,0,0.6,0c2.5,0,3.4,2.7,2,6.5c-0.8,2.1-2,3.2-3,3.2c-0.9,0-1.7-0.8-2.4-2.4C521.8,639.9,523.1,636.6,526.1,636.2z M501.1,706.8c3.4,0,6.8-2.4,11.8-7.3c4.1-4.1,7.8-8.5,11.4-12.9c2.3-2.9,4.1-4.2,5-4.2c1.6,0,1,3.4-3.1,9.1c-6.7,9.4-15.9,18.4-22.6,20.3c-0.5,0.2-1.1,0.2-1.7,0.2c-1.7,0-3.6-0.5-5.1-1.2c-6.8-3.2-14.3-10.4-20-18.6c-4.1-5.9-4.7-9.3-3.3-9.3c0.9,0,2.5,1.2,4.7,3.9c3.5,4.4,7,8.6,11,12.6C494.1,704.3,497.6,706.8,501.1,706.8z"/><path d="M402.4,390.2c25.6,3.4,51.2,7.1,76.6,11.4c1.3,0.2,2.5,0.4,3.6,0.4c5.1,0,7.5-2.6,9.5-8c1.5-4,3.3-7.9,5.3-12.1c1.4-2.9,3.3-4.4,5.2-4.4c2.4,0,4.9,2.2,6.9,6.4c2.2,4.8,4.4,9.3,6.7,13.8c1.1,2.1,4.4,4.6,6.5,4.6c0.1,0,0.2,0,0.3,0c27.2-3.9,54.3-8.3,81.4-12.5c4.2-0.6,6-2.3,5.7-7c-0.7-13.9-0.4-27.8-1.4-41.6c-0.4-6.9,1.1-10,8.4-11.6c32.4-7.3,62.4-20.4,90.5-38.1c1.3-0.8,2.5-1.7,3.7-2.5c5.8-4.6,11.5-9.2,17-14.4c0.8-0.8,1.5-1.7,2.2-2.7c1.4-2,3.7-4.8,5.2-6.2c1.2-1.2,2.9-1.8,4.6-1.8c0.3,0,0.6,0.3,0.8,0.3c0-0.2,0.1-0.4,0.1-0.6c0-1.4-0.1-2.7-0.4-4c-3.3-13.8-8-27.3-9.9-41.2c-1.9-14.1-10.1-20-22.3-23.1c-1.5-0.4-3-1.3-4.4-1.3c-0.1,0-0.2,0-0.3,0c-3,0.3-6.6,0.3-8.6,2c-20.8,16.9-44.3,28.5-69.7,36.4c-2.8,0.9-5.7,1.7-8.6,2.5c-4.8,1.3-6.8,7.1-4.5,12.9c1.4,3.6,2.7,7.2,3.7,10.8c0.8,2.9,0.2,6.8-1,9.6c-7,16-20.1,23.5-36.7,27.4c-25.4,6-50.7,8.9-76,8.9c-22.1,0-44.2-2.3-66.4-6.8c-18.7-3.9-37.8-8-45.8-28.9c-1.3-3.4-2.1-7.6-1.2-11c0.9-3.5,2.2-7,3.6-10.5c2.3-5.7,2.1-10.8-0.5-11.5c-1.6-0.4-3.2-0.8-4.7-1.2c-26.3-7-51.1-17.5-72.1-34.9c-4.7-3.9-8.8-5.5-13.2-5.5c-3.2,0-6.5,0.8-10.2,2.2c-11.4,4.2-18.1,10.5-20.7,23.2c-5.5,27.1-11.2,54.4-19.5,80.7c-5.7,18.3,0.7,29.7,13.8,40c5.3,4.2,10.9,8.2,16.7,11.6c17.9,10.3,37.3,16.5,57.5,19.8c8.9,1.5,17.9,2.6,27.1,3.7c1,0.1,1.9,0.2,2.8,0.2c10,0,17.7-6.5,17.7-15.4c0-6.1-0.1-11.9-0.3-17.6c-0.1-1.8-3.4-4.5-5.6-5c-43-9.9-79.8-31-111.1-61.9c-0.8-0.8-1.5-1.7-2.5-2.9c-1.1-1.3-1.3-2.1-0.8-2.1c0.1,0,0.3,0.1,0.5,0.2c1.1,0.5,1.6,0.8,2,1.1c36.2,28.7,76.9,48.1,121.7,58.7c4.6,1.1,5.3,3,5.1,7.3c-0.7,14.4-0.7,28.8-1.4,43.2C394.9,386.7,396.1,389.4,402.4,390.2z M510.9,355.8c-1.9,2.5-4.5,4.2-8.6,4.3c-0.1,0-0.2,0-0.3,0c-3.8,0-6.4-1.6-8.3-4.1c-1.9-2.6-2-4.8-1-5.8c0.4-0.4,0.8-0.7,1.5-0.7c0.5,0,1,0.1,1.6,0.4c1.9,1,3.8,1.7,5.7,1.8c0.1,0,0.3,0.1,0.4,0.1c0,0,0.1,0,0.2,0c2.2,0,4.3-0.9,6.5-2c0.6-0.3,1.2-0.5,1.7-0.5C512.5,349.3,513.6,352.2,510.9,355.8z M490.7,327.2c1.1-3,3.3-5.4,6.6-6.9c1.1-0.5,2.5-0.7,4-0.7c3,0,6.4,0.9,8.1,2.5c2.9,2.7,5.5,10.4,3.9,12.2c-2.9,3.4-8.9,5-13.8,5.9c-0.2,0-0.4,0-0.6,0c-1.2,0-2.4-0.6-3.7-1.2c-0.1,0-0.1,0-0.2-0.1c-0.2-0.1-0.5-0.2-0.6-0.2c-0.5,0-0.4,0.6,0,1.3c0.2,0.4,0.4,0.7,0.8,1.1c1.1,1,2.8,2,5.6,2.2c0.2,0,0.4,0,0.5,0c6.4,0.4,10.3,0.5,7.1,3.1c-1.3,1.1-2.9,1.5-4.8,1.6c-0.1,0-0.2,0.1-0.4,0.1c-0.7,0-1.5-0.1-2.3-0.2c-3-0.5-5.7-1.5-7.6-3.3c-0.6-0.6-1-1.5-1.4-2.3c-0.1-0.3-0.4-0.5-0.5-0.8c-0.1-0.2-0.3-0.3-0.3-0.6c-0.5-1.6-1.4-5.4-1.3-9.3C490,330.3,490.2,328.7,490.7,327.2z"/><path d="M650.8,181.9c0.3,0,0.6,0,0.9,0c5.9-0.2,11.7-0.3,17.4-0.3c7.4,0,14.8,0.3,22.1,1.1c45,5.3,73,33.2,81,77.1c8.3,46.2-7.7,79.8-49.2,101.8c-29.9,15.8-62.5,21.8-95.9,23.6c-5.9,0.3-8.5,1.8-9.4,8c-4.3,27.3-13.1,53.3-25.7,77.9c-16.4,31.9-38.3,58.5-67.3,79c-9.3,6.6-16.6,11-15.8,11c0.5,0,1.1-0.1,1.6-0.2c5.3-1.2,10.7-2.2,15.9-3.7c59.6-17.9,101.8-56.8,131.3-110.5c3.2-5.8,6.5-7.9,12.9-7.9c0.1,0,0.2,0,0.3,0c0.5,0,1,0,1.6,0c23.6,0,46.6-4.2,68.9-11.9c56.7-19.7,91.8-57.8,98.8-118.7c4.2-36.9-1.7-73.1-8.9-109.3c-2.8-14.1-3.6-29.2-2.4-43.6c1.5-16.8,8.4-32.3,23.2-42.3c1.3-0.9,2.6-1.6,4-2.3c0.1-0.1,0.2-0.1,0.3-0.2c2.2-1.1,4.6-2.1,7-3l0,0c0,0,0,0,0,0c1.8-0.7,1.4-2-0.6-3.3c-0.3,0.4-0.2,0.9-0.5,1.2c-0.9,0.9-2.3,1.4-3.6,1.4c-0.1,0-0.1,0-0.2,0l-2.8-0.1l-5.7-0.2l-2.7-0.1c-23.8,0-38.7,11.5-47.1,21.2l-1,1.1c-6.1,7.1-6.1,7.1-8.5,7.1c-0.8,0-1.4-0.3-2.1-0.6c-1.2,2.1-2.4,4.2-3.4,6.3c-3.2,6.9-5.3,14.4-6.3,22c-1,8-4.4,12.4-9.9,12.4c-2.3,0-4.9-0.7-7.8-2.2c-17.6-9.1-36.2-14.7-56.4-15.4c-1.4,0-2.7-0.1-4-0.1c-18.7,0-36.1,4.5-52.3,13C638.8,176.5,640.2,181.9,650.8,181.9z"/><path d="M830.1,103.6c0.9-0.2,1.8-0.4,2.8-0.6C832,103.1,831,103.3,830.1,103.6c-3.8,0.9-7.4,2.1-10.7,3.6c-0.4,0.2-0.8,0.3-1.3,0.5c0.4-0.2,0.8-0.3,1.2-0.5C822.8,105.7,826.4,104.5,830.1,103.6z"/><path d="M847.3,101.3c0.6,0,1.2,0,1.9,0c0.3,0,0.7,0,1,0c5.7,0.2,8.6,0.3,8.6,0.3s-2.8-0.1-8.5-0.3C849.2,101.4,848.3,101.3,847.3,101.3C847.3,101.3,847.2,101.3,847.3,101.3c-4.9,0-9.4,0.6-13.7,1.4c0,0,0,0-0.1,0c-0.2,0-0.4,0.1-0.6,0.1c0.2,0,0.4-0.1,0.6-0.1C837.9,101.9,842.5,101.3,847.3,101.3z"/><path d="M790.7,130.7c0,0,1.5-1.8,4.6-5.3C792.2,129,790.7,130.7,790.7,130.7z"/><path d="M796.3,124.3c-0.4,0.4-0.7,0.8-1,1.2C795.6,125.1,795.9,124.7,796.3,124.3z"/><path d="M807.3,114.2c3.3-2.4,6.8-4.6,10.6-6.4c0.1,0,0.2-0.1,0.3-0.1c-0.1,0-0.2,0.1-0.3,0.1h0C814.1,109.6,810.6,111.8,807.3,114.2c-0.8,0.6-1.6,1.3-2.4,1.9c0,0,0,0,0,0c-2.2,1.7-4.1,3.7-6,5.7c1.9-2,3.9-3.9,6-5.7C805.7,115.5,806.5,114.8,807.3,114.2z"/><path d="M152.6,113.8c13.8,8.8,20.6,20.5,23.2,40.4c1.9,14,1.3,29-1.6,42.7c-7.4,34.2-12.8,68.5-10.3,103.5c3.6,51.5,27.2,91,73.7,115.4c29.4,15.4,61.2,22.4,94.2,23c7.9,0.1,12.4,2.2,16.4,9.5c19.5,36.4,46.5,66.2,82,87.7c15,9.1,30.7,16.2,47.3,20.7c4.4,1.2,7.9,1.7,10.4,1.7c3.7,0,4.8-1.1,2.2-2.8c-2.6-1.7-5.2-3.3-7.8-5c-55.4-37.8-82.9-92.7-95.1-156.7c-1.2-6.2-2.9-8.6-9.6-8.8c-26-0.9-51.3-5.6-75.8-14.6c-46.2-17-78.4-49-70-105.8c5.8-39.1,25.4-66.8,64.1-78.2c12.6-3.7,26.1-5,39.3-5.7c2.1-0.1,4.1-0.2,6.2-0.2c4.4,0,8.8,0.2,13.3,0.5c0.7,0.1,1.3,0.1,2,0.1c9,0,9.4-4.5-0.1-9.4c-18-9.2-35.9-13.5-53.5-13.5c-19.9,0-39.6,5.4-59.2,15.2c-2.9,1.4-5.5,2.1-7.8,2.1c-5.8,0-9.6-4.5-10.7-12.5c-5.4-39.4-35.6-61.8-68.8-61.8c-0.8,0-1.6,0-2.4,0C142.9,101.8,143,107.7,152.6,113.8z"/><path d="M374.6,837.5c18.4,13.6,37.4,26.3,54.9,41c18.1,15.2,38.3,23.6,61.5,25.2c3.9,0.2,7.7,0.4,11.5,0.4c21.1,0,41.3-4.3,59.1-17.2c23.1-16.7,45.8-34.1,68.7-51.1c0.7-0.5,1.5-0.9,2.4-1.4c0.2-0.1,0.3-0.2,0.5-0.3c1.1-0.7-3.7-2.8-11.1-5.7c-16-5.2-31.6-14.5-44.4-27c-0.6-0.6-1.2-1.4-1.8-2c-4.5-4.6-8.5-9.6-12.2-14.8c-0.4-0.5-0.7-1-1.1-1.6c-4.2-6.3-8-12.8-10.7-19.7c-0.1-0.3,0-0.6-0.1-0.9c-3.8-8.5-11.9-15.5-20.9-17.8c-1.8-0.4-3.6-1-5.5-1c-16.2,0-32.2,0-48.4,0c-1.1,0-2,0.4-3.1,0.6c-10.2,1.5-19.9,9.4-23.7,19c0,0,0,0,0,0c-2.5,6.4-5.8,12.4-9.5,18.2c-0.9,1.4-1.8,2.8-2.8,4.2c-3.3,4.8-7,9.3-11,13.5c-0.6,0.6-1.1,1.3-1.7,1.9c-12.2,12.2-27.1,21.3-42.8,26.6c-7.8,3.3-12.8,6-11.2,7.3C372.3,835.8,373.5,836.6,374.6,837.5z M512.3,878.3c-2.9,3.8-6.8,6.1-11.2,6.1c-0.2,0-0.3,0-0.5,0c-4.2-0.2-8-2.4-10.7-6c-2.9-3.8-2.2-6.8-0.2-7.8c0.4-0.2,0.8-0.5,1.3-0.5c0.7,0,1.4,0.2,2.2,0.6c0.7,0.4,1.5,0.6,2.2,0.9c1.9,0.8,3.9,1.5,5.8,1.5c0.1,0,0.3,0,0.4,0c2.8-0.1,5.5-1.4,8.1-2.9c0.8-0.5,1.5-0.7,2.2-0.7C514.7,869.5,516,873.4,512.3,878.3z M511.9,855.8c-3,2.1-6.2,3.2-9.6,3.2c-1.2,0-2.4-0.2-3.7-0.4c-1-0.2-1.9-0.3-2.7-0.3c-4.9,0-4.3,3.9,4.3,3.9c0.3,0,0.5,0,0.8,0c2.3,0,4.4,0,6.1,0c5.2,0,7.2,0.4,3.3,3.5c-2.5,2-5.6,3.1-9,3.1c-0.8,0-1.7-0.1-2.6-0.2c-0.1,0-0.1,0-0.2,0c-0.9-0.2-1.8-0.4-2.7-0.7c-2.7-0.9-5-2.6-6.7-4.7c-0.6-0.7-0.8-1.6-1.2-2.4c-0.5-0.9-1-1.6-1.3-2.6c-0.1-0.2-0.1-0.6-0.2-0.8c-0.5-2.1-1-5.9-0.7-10.1c0.2-2.7,0.7-5.6,1.9-8.1c2.1-4.2,5.7-7.5,10.1-8.6c1.2-0.3,2.3-0.4,3.4-0.4c6.3,0,12.1,4.7,15.2,12.4C519,848.8,516.5,852.6,511.9,855.8z M501.7,799.7c10.8,0.2,10,6.8,0.1,6.8c-9.8,0-10.8-6.8-0.4-6.8C501.4,799.6,501.6,799.6,501.7,799.7z M465.4,774.8c0.2,0,0.5,0,0.7,0c2.6,0.3,5.2,0.8,7.5,1.9c9.3,4.4,18.4,6.6,27.6,6.6c9.1,0,18.1-2.2,27.3-6.7c1.7-0.9,3.6-1.4,5.6-1.9c1.3-0.3,2.5-0.5,3.6-0.5c1.4,0,2.4,0.3,2.5,0.9c0.2,1-8.6,4.3-19.6,7.2c-6.9,1.9-13.8,3.3-20.6,3.3c-0.3,0-0.6,0-0.8,0c-7.2-0.1-14.3-1.9-21.4-4.4C467.7,778,462.6,774.8,465.4,774.8z"/><path d="M208.3,833.7c-11.2,5.4-22,12.5-34.5,12.5c-3.4,0-6.8-0.5-10.5-1.7c-1.3-0.4-2.7-0.6-4.2-0.8c-0.1,0-0.1,0-0.2,0c-2.4,0-5.6,3.6-7.3,8.2c-1.8,4.8,4.5,13.7,14.8,18.5c45.8,21.1,135.9,42.8,187.3,45c0.9,0,1.9,0.1,2.8,0.1c10.1,0,18.2-2.4,18.5-4.3c0.2-1.3,0.5-2.5,0.6-3.8c1.9-14.6,3.1-29.3,5.8-43.7c1.7-8.8,0-14.5-8-18.6c-6.1-3.2-11.8-9.7-18-10.1c-33.5-1.7-60.4-16.6-83.9-39c-4.5-4.3-8.5-9.3-11.6-14.6c-3.9-6.7,0.6-13.9,7.9-13.9c0.5,0,1,0,1.5,0.1c4.1,0.5,8.1,2.9,11.9,4.7c1.4,0.7,2.7,1.5,3.9,2.2c0.1,0.1,0.3,0.1,0.4,0.1c1.7,0,1.9-7.6,0.5-18.1c-1-7-2-14-2.7-21c-2.2-20.2-3.5-40.4-15.2-58.1c-0.7-1.1-0.8-2.6-1.6-3.7c-0.8-1.1-1.7-2.1-2.5-3.1c-0.8-0.9-1.8-1.3-2.7-1.3c-0.9,0-1.8,0.4-2.4,1.1c-0.8,1-1.6,2-2.1,3.1c-9,21.2-16.3,43.2-26.9,63.5c-14.5,27.7-22.8,56.1-19,87.4c0.2,1.6,0.3,3.4-0.1,4.9C210.3,830.8,209.6,833,208.3,833.7z"/><path d="M789.9,827c-0.5-13,0.1-26.1-0.4-39.1c-0.2-5.5-1.5-11.3-3.7-16.3c-10.6-24.3-21.8-48.4-32.4-72.7c-3.9-8.9-6.8-18.3-10.5-27.4c-0.7-1.7-2.6-3.1-4.4-3.8c-0.1,0-0.1,0-0.2,0c-0.8,0-2.9,1.4-3.2,2.5c-4.4,13.7-14,25.1-15.2,40.5c-0.3,4.6-0.9,9.3-1.4,13.9c0,1.6-0.1,3-0.2,4.2c-1,11-2.2,21-4.3,30.8c-0.8,8.2,0,13.9,2.3,13.9c0.3,0,0.7-0.1,1-0.4c1.9-1.2,3.9-2.5,6-3.5c2.8-1.4,5.8-2.5,8.6-2.5c2.7,0,5.4,1,7.7,3.9c4.7,5.7,1.5,10.9-2.3,15.4c-1.8,2.1-3.7,4.1-5.6,6.1c-0.6,0.7-1,1.4-1.6,2.1c-2.7,2.9-5.8,5.7-9.2,8.5c-20.5,18.2-44.5,29.7-73.7,31.6c-12.4,0.8-19.2,11.3-28.6,17.3c-0.6,0.4-0.7,2-0.6,3c1.7,13.5,3.5,26.9,5.3,40.6c1.4,10.9,11.1,19.5,21.9,19.5c0.4,0,0.9,0,1.3,0c65.2-4.3,127.4-19.1,187.1-44.9c10.5-4.5,17.2-12.6,15.3-17.5c-1.8-4.9-12-6.9-23.1-6.9c-0.3,0-0.6,0-0.9,0c-0.2,0-0.3,0-0.5,0c-9.3,0-14.7-2.8-29.9-10.6C792.4,833.5,790,829.7,789.9,827z"/><path d="M790.6,408.6c-0.7,0-1.1,0.3-1.2,0.9c-0.2,1.6,0.2,3.5,0.7,5.6c4.4,18.8,8.7,37.5,12.8,56.4c0.6,2.9,0.4,6.6-0.8,9.3c-13.8,31.1-13.9,31-46.3,40.7c-1.3,0.4-2.6,0.8-3.9,1.2c-13.6,3.8-27.2,7.7-41.1,11.6c-11,3.1-16,14-11.2,24.3c1.8,3.9,3.7,7.9,5.5,11.8c3.9,8.4,13,13.8,22.1,13.8c2,0,4-0.3,5.9-0.8c0.3-0.1,0.5-0.2,0.8-0.3c1-0.3,2.1-0.6,3.2-0.9c6-1.8,11.9-3.6,17.8-5.5c2.1-0.7,4-1.1,5.8-1.1c3.3,0,6.1,1.4,9.1,4.7c7.2,8.1,15.5,15.3,22.9,23.3c2,2.1,3.7,3.1,5.7,3.1c1.4,0,3-0.5,4.8-1.5c21.3-11,42.5-21.9,64.2-32c8.4-3.9,9.8-9.8,9.1-17.6c-0.2-2.2-0.2-4.4-1-6.4c-4.3-12.1,0.4-19,11.8-23.8c7.6-3.2,9.6-17.5,3.6-23.4c-27.4-27.2-55-54.3-83.1-81.8C801.2,413.5,793.5,408.6,790.6,408.6L790.6,408.6z"/><path d="M124.4,553.5c-0.9,2.9-0.8,6.7,0.1,9.6c0.9,2.9,2.9,6.6,5.4,7.9c22.7,11.7,45.6,23.2,68.6,34.3c0.6,0.3,1.5,0.5,2.4,0.5c2.1,0,4.5-0.7,5.7-1.8c8.8-8.1,17.2-16.6,25.5-25.3c2.2-2.3,4.2-3.5,6.9-3.5c1.1,0,2.4,0.2,3.8,0.7c5.1,1.7,10.3,3.2,15.5,4.8c2.8,0.8,5.6,1.6,8.4,2.4c0.1,0,0.2,0.1,0.2,0.1c1.8,0.5,3.7,0.8,5.6,0.8c9.1,0,18.3-5.4,22.1-13.8c1.6-3.5,3.2-7,4.9-10.5c4.8-10.3,6.6-19.4,4-20.4c-1.7-0.6-3.2-1.1-4.7-1.5c-18.8-5.5-37.3-12.4-56.4-16.1c-22.9-4.5-37.3-16.6-43.7-38.6c-0.1-0.5-0.6-1-0.7-1.5c-0.4-3.6-1.6-7.5-0.9-10.9c4.1-19.4,8.8-38.7,13.1-58.1c0.3-1.4,0.4-3,0.4-4.5c0-2.5-0.5-4.6-1.2-4.9l0,0c-0.1,0-0.1,0-0.3,0c-0.8,0-2.3,0.8-3.7,2c-0.9,0.8-1.8,1.6-2.6,2.4c-10.6,10.6-21,21.3-31.6,31.9c-20.1,20.3-40.3,40.5-60.4,60.8c-6.1,6.1-6.7,21-0.3,23.4C125.5,529.3,128.7,539.2,124.4,553.5z"/><path d="M888.8,532.9c-4.2,2.1-6.6,7.4-5.3,11.8c0.8,2.7,1.6,5.4,2.4,8c3.2,10.9-0.2,18.8-10,23.8c-23.1,11.6-46.3,22.9-69.1,35.2c-3.5,1.9-6.5,2.9-9.2,2.9c-3.5,0-6.7-1.7-10.2-5.8c-7.5-8.6-16.2-16.1-24.5-23.9c-1.5-1.4-3.9-3.4-5.5-3.4c-0.1,0-0.3,0-0.4,0.1c-6.1,1.7-12.2,3.5-18.3,5.3c-1,0.3-2.1,0.6-3.1,0.9c-0.3,0.1-0.5,0.2-0.8,0.2c-10.5,3.2-18.7,6.5-18.5,7.4c0.2,0.8,0.3,1.2,0.5,1.7c5.3,14,10.7,27.9,15.9,41.9c6.4,16.8,8.9,23,17.9,23c4.3,0,10.1-1.4,18.5-3.8c5-1.4,9.4-2.1,13.3-2.1c10.3,0,17.6,5.1,23.6,17c3.1,6.2,8,9.1,13.8,9.1c3.4,0,7.2-1,11-3c25.3-13.3,50.5-26.7,75.7-40.2c7.2-3.8,10.3-14.2,6.8-21.6c-1.5-3.3-3.1-6.6-4.7-10c-2.6-5.5,1.1-12.9,8.2-16.5c4.3-2.2,8.6-4.3,12.8-6.5c6.6-3.4,8.4-10.3,3.5-15.9c-7.4-8.3-14.9-16.4-22.5-24.6c-6.6-7-14.5-11.8-19.4-11.8C890.2,532.4,889.4,532.6,888.8,532.9L888.8,532.9z"/><path d="M71,584.8c4.2,2.2,8.4,4.3,12.8,6.5c7,3.5,10.6,10.9,8,16.4c-1.6,3.4-3.2,6.7-4.8,10c-3.5,7.5-0.3,17.7,7,21.6c25.2,13.5,50.4,26.9,75.7,40.1c3.6,1.9,7.1,2.9,10.2,2.9c5.7,0,10.7-3.1,14.8-9c3.3-4.7,6.7-9.3,9.7-14.1c1.9-3.1,4-4.3,7-4.3c0.9,0,2,0.1,3.1,0.3c12.8,2.3,25.7,3.7,38.6,5.5c0.5,0.1,1,0.1,1.5,0.1c3.9,0,5.9-2.4,7.3-6.5c3.2-9.3,7-18.3,10.5-27.4c2.1-5.5,4.1-10.9,6.2-16.5c3.4-9-2.5-18.9-13.1-22.3c-0.1,0-0.2-0.1-0.3-0.1c-2.8-0.9-5.6-1.6-8.4-2.4c-3.7-1.1-7.5-2.2-11.2-3.2c-0.4-0.1-0.8-0.2-1.2-0.2c-2.2,0-4.9,1.2-6.4,2.5c-9.4,8.7-18.7,17.5-27.6,26.7c-2.5,2.6-4.8,3.9-7.4,3.9c-1.8,0-3.7-0.6-5.9-1.8c-24.1-12.6-48.4-24.7-72.7-37c-9.9-5-13.2-12.4-10.1-23.1c0.8-2.8,1.7-5.5,2.5-8.3c1.4-4.6-0.9-10-5.2-12.2c-0.7-0.3-1.4-0.5-2.4-0.5c-4.9,0-12.8,4.7-19.4,11.7c-7.6,8.2-15.2,16.4-22.5,24.7C62.6,574.2,64.6,581.6,71,584.8z"/><path d="M450.5,556.6c-48.5-21.6-83.9-57.3-109.9-103c-1.6-2.8-6-5.4-9.3-5.6c-26.8-1.3-53-5.7-77.9-15.7c-6-2.4-11.8-5.1-17.6-7.9c-2.5-1.2-4.9-1.7-7.2-1.7c-6.8,0-12.5,4.8-14.2,12.8c-1.4,6.5-2.9,13-5.1,19.3c-5.1,14.9-2.8,27.6,4.9,40.8c3.5,6,7.1,9.9,13.8,12.2c55,18.2,110.8,33.3,167.8,43.5c12.1,2.2,24.2,3.9,36.3,5.6c9.4,1.3,17.4,2.3,19.9,2.3c0.5,0,0.7,0,0.8-0.1c0.1-0.4-0.3-1.2-1-1.7C451.3,557.1,450.9,556.8,450.5,556.6z M287.3,500c-2.6,2.3-5.4,3.5-8.3,3.5c-0.8,0-1.6-0.1-2.3-0.3c-4-0.9-6.8-3.7-8.3-8.6c-0.9-2.9-0.8-4,0.3-4c1.4,0,4.6,1.7,9.4,3.4C286.8,497.1,292,495.7,287.3,500z M287.9,489.1c-2.1,0.6-4.3,1.1-6.3,1.1c-0.5,0-0.9,0-1.4-0.1c-3.8-0.5-6.4-2.4-8.1-5.6c-1.2-2.2-1.2-3-0.3-3c1.2,0,4.2,1.4,8.5,3.1c2.4,0.9,4.7,1.3,6.7,1.3c3.8,0,6.7-1,7.7-1c0.2,0,0.4,0,0.4,0.2C295.3,486,292.1,487.8,287.9,489.1z M287.1,483.1c-0.2,0-0.3,0-0.5,0c-7.3,0-15.4-6.4-15.4-12.3c0-5.4,7.8-12.3,14.1-12.5c0.1,0,0.2,0,0.3,0c7,0,12.6,6.4,12.8,14.7C298.6,478.8,294,482.8,287.1,483.1z"/><path d="M286.6,480.5v2.6l0.1-2.6L286.6,480.5z"/><path d="M789.8,486.7c1.3-4.6,5.2-9.4,4.4-13.5c-2.1-11.7-4.8-23.3-7.5-35c-2.5-10.9-5.3-19.4-6.3-19.4c0,0,0,0-0.1,0c-0.6,0.2-1.2,0.5-1.7,0.7c-31.8,18.3-66.4,26.6-102.7,28c-6.7,0.2-10,2.6-13.1,8.2c-23,40.7-54.2,73.2-96,95c-1.5,0.8-3,1.6-4.6,2.4c-2.5,1.3-4.5,2.6-4.4,3c0.1,0.2,0.8,0.3,1.8,0.3c0.8,0,1.9-0.1,3-0.2c1.6-0.2,3.1-0.3,4.7-0.6c66-9.4,130.4-26,194.3-44.7C775.4,506.8,785.8,501.1,789.8,486.7z M701.4,473.5c-0.2-8.2,5.7-15.1,12.6-15.2c0,0,0.1,0,0.1,0c6.3,0,14.2,6.6,14.5,12c0.2,3.3-2.2,6.8-5.7,9.3c-2.7,1.9-6.6,2.8-10.3,2.8c-3.2,0-6.2-0.7-7.9-1.9C702.8,479.2,701.4,477.1,701.4,473.5z M718.5,485.3c4.1-1.3,7.2-2.5,8.6-2.5c1.1,0,1.2,0.7,0,2.7c-1.6,2.6-4.1,4.3-7.6,4.7c-0.4,0-0.8,0.1-1.2,0.1c-2.2,0-4.5-0.6-6.7-1.5C707.5,487,711,487.7,718.5,485.3z M731.3,495.2c-1.4,4.3-4.2,7.1-7.9,8c-0.9,0.2-1.7,0.3-2.6,0.3c-2.7,0-5.4-1.1-7.8-3.1c-4.7-3.9,0.4-3.6,8.6-6.2c4.4-1.5,7.6-2.9,9.1-2.9C732,491.4,732.3,492.4,731.3,495.2L731.3,495.2z"/><path d="M44.7,637.4c2.2,1.4,4.4,2.7,6.7,4.2c3.7,2.3,4,9.3,0.7,15.6c-2,3.9-3.9,7.7-5.8,11.6c-3.6,7.4-1,15.3,6.2,19.2c29.3,16.2,58.6,32.4,87.9,48.5c4,2.2,7.1,3.3,10,3.3c4.2,0,7.6-2.4,11.6-7.4c3.4-4.3,7.2-8.2,10.1-12.8c2-3.1,4-4.3,6.5-4.3c1.5,0,3.2,0.4,5.1,1.2c9.9,4,19.7,8.3,30.4,8.3c3.4,0,6.9-0.4,10.5-1.5c4.5-1.3,7.1-2.5,8.7-6.9c4.5-12.6,9.3-25,13.9-37.5c0.6-1.5,1.1-3,1.5-4.5c0.8-2.5-3.1-5.2-8.7-5.9c-3.5-0.5-6.8-1-10.1-1.6c-5.7-1.1-9.6-1.9-12.5-1.9c-6,0-8.1,3.1-14.7,12.7c-2.5,3.6-4.9,7.2-7.5,10.7c-1.1,1.4-2.8,3.3-4.1,3.3c0,0-0.1,0-0.1,0c-8.8-0.7-18.7,0.4-26.1-3.4c-26.4-13.4-52.1-28.4-77.8-43.1c-3.3-1.9-5.7-6-7.9-9.4c-5.9-9.8-4-19,2.9-27.6c1-1.2,1.7-2.5,2.5-4c1.2-2.3-1.9-6.4-6.9-9.1c-3.1-1.7-6.1-3.2-9.2-4.6c-0.4-0.1-0.8-0.2-1.3-0.2c-1.6,0-3.8,0.8-4.6,1.8c-7.6,9.2-15,18.7-22,28.3C36.1,626.6,38,633.3,44.7,637.4z"/><path d="M931.8,591.3c-11.4,0.7-16.5,12.3-14.2,16.2c1.4,2.4,2.8,4.8,4.1,7.2c5.4,9.2,0.9,25.5-8.5,30.8c-24.7,13.8-49.6,27.2-74,41.5c-7.9,4.6-15.9,4.3-24.2,5.2c-0.6,0-1.2,0.1-1.8,0.1c-9.9,0-10.9-9.9-16-15.2c-1.7-1.7-3.1-3.8-4.2-6c-2.2-4.8-5.3-6.5-9.4-6.5c-1.6,0-3.4,0.3-5.3,0.7c-4.7,1.1-9.4,1.9-14.3,2.7c-7.9,1.3-11.1,10.9-7.1,21.5c3.8,10.1,7.6,20.2,11.5,30.4c0.5,1.3,2.3,2.6,3.6,2.7c5.9,0.5,11.8,1.7,17.7,1.7c3.9,0,7.9-0.5,11.9-2.2c8.6-3.5,13.8-5.5,17.9-5.5c6.1,0,9.7,4.6,18.4,15.4c4.2,5.3,7.6,7.8,11.8,7.8c2.9,0,6.2-1.2,10.4-3.5c28.6-15.7,57.1-31.5,85.7-47.3c9.9-5.5,12-12.6,6.8-22.8c-1.7-3.4-3.5-6.8-5.2-10.3c-2.9-5.7-2.3-12.1,1.3-14.3c2.2-1.4,4.3-2.7,6.5-4c8-5,9.1-11.1,3.4-18.8c-3.4-4.6-7-9-10.5-13.5c-7.5-9.7-11-14.1-15.9-14.1C932.1,591.3,931.9,591.3,931.8,591.3z"/><path d="M405.5,810.1c5.3-3.4,9.9-7.3,14.3-11.5c1.8-1.8,3.5-3.7,5.3-5.5c2.9-3.2,5.7-6.5,8.2-10c1.2-1.6,2.3-3.3,3.3-5c3.4-5.4,6.5-11,8.8-16.9c0,0,0,0,0,0c3.4-9-2.1-17.6-10.6-21.2c-1.6-0.7-3-1.5-4.8-1.7c-11.6-1.7-23.2-3.4-34.9-5.1c-4.9-0.7-9.5-1.1-13-1.1c-1.4,0-2.3,0.2-3.4,0.3c-2.3,0.2-4.1,0.7-4.1,1.5c-0.1,1.3-0.1,2.5-0.2,3.6c-0.2,2.3-0.9,4.3-1.3,6.5c-0.2,2.9-0.9,5.9-1.7,8.8c-0.2,0.7-0.3,1.4-0.5,2.1c-0.1,0.2-0.2,0.3-0.2,0.4c-1.7,4.6-4.1,8.8-6.8,12.6c-6.7,9.4-16.2,16.6-28.5,20.4c-2.3,0.7-4.7,1.2-7,1.6c-0.5,0.1-0.8,0.4-1.2,0.5c-2.8,0.4-5.7,0.6-8.5,0.6c-0.1,0-0.3,0-0.4,0c-0.4,0-0.9,0.1-1.3,0.1c-13.1,0-25.6-4.5-37.5-12.3c-2-1.3-4.2-2.4-6.6-3.5c-0.4-0.2-0.7-0.2-1-0.2c-2.9,0-3,7.3,3.9,15c17.4,19.4,54.1,37.3,79.8,37.3c0.9,0,1.9,0,2.8-0.1c7.7-0.4,15.4-2.2,22.9-4.8c8.4-2.9,16.5-7,24.1-12.2C405.3,810.3,405.4,810.2,405.5,810.1z"/><path d="M566.6,779.7c0.5,0.8,1.1,1.6,1.6,2.4c2.9,4.3,6.4,8.2,9.9,12c1.7,1.8,3.5,3.6,5.3,5.3c4.3,3.9,8.8,7.7,13.9,10.9c0.3,0.2,0.6,0.4,0.9,0.6c6.4,4.3,13.2,7.6,20.2,10.3l0,0l0.7,0.3c1.5,0.5,2.9,1.3,4.3,1.7c7.4,2.4,14.9,4.1,22.3,4.3c0.5,0,0.9,0,1.4,0c21.6,0,51.4-13,70.5-28.6c3.2-2.7,6.2-5.3,8.8-8.1c0.6-0.6,0.8-1.2,1.3-1.8c5.7-7.2,5.9-13.9,3.5-13.9c-0.2,0-0.4,0-0.6,0.1c-2,0.7-3.9,1.4-5.6,2.3c-6.6,3.2-12.7,7.6-19.5,10c-2.4,0.8-4.7,1.3-7,1.8c-0.6,0.3-1.4,0.3-2.1,0.5c-1.1,0.2-2.3,0.4-3.4,0.6c-1.6,0.2-2.8,0.8-4.7,0.8c-0.8,0-1.8-0.1-2.7-0.2c-0.4,0-0.8,0.1-1.3,0.1c-17.3,0-32.7-7.8-43-20.6c-5.6-7-9.7-15.6-11.6-25.4c-0.5-2.9-1.1-5.8-1.3-8.8c-0.1-1-0.2-2-0.4-3.1c-0.1-0.5-1-0.8-2.5-1c-1.1-0.2-2.3-0.3-4-0.3c-3.8,0-8.9,0.4-14.4,1.2c-11.6,1.7-23.2,3.4-34.7,5.1c-3.2,0.5-6.1,1.7-8.7,3.5c-6,4.1-9.5,11.2-7.3,18.4c0.1,0.4,0.1,0.8,0.3,1.1C559.1,767.6,562.7,773.7,566.6,779.7z"/><path d="M739.3,269.5c-1.1,1-3.1,3.4-4.5,5.4c-0.7,1-1.5,2-2.4,2.9c-0.1,0.2-0.2,0.4-0.4,0.5c-5.5,5.3-11.4,10-17.2,14.7c-26.9,21.6-57.1,37-91.6,44.8c-2,0.5-5.1,2.4-5.1,3.8c-0.2,5.9-0.3,11.8-0.3,17.7c0,9.2,8.2,16.6,18.6,16.6c0.6,0,1.3,0,2-0.1c24-2.2,46.8-7.1,68.8-16.1c16.3-6.7,30.9-15.9,42.4-29.6c4.1-4.9,5.8-9.6,3.9-16.3c-3.5-12.5-5.8-25.4-8.8-38.1c-0.3-1.1-0.7-2.2-1.2-3.3c-0.1-0.3-0.2-0.5-0.3-0.7c-0.3-0.7-0.8-1.2-1.2-1.7c-0.5-0.5-1.1-0.8-1.6-0.8C740,269.1,739.6,269.2,739.3,269.5z"/><path d="M986.2,739.1c0.2-3.9,0.3-7.9,0.2-12c0-6.3-0.7-11.1-1.6-11.1c0,0-0.1,0-0.1,0c-0.8,0.4-1.2,0.7-1.6,1c-43.3,39.9-94.5,66.4-149,87.4c-2.4,0.9-5.2,1.7-7.7,1.7c-0.8,0-1.7-0.1-2.4-0.3c-4.7-1.1-9.2-2.5-13.9-4c-1.5-0.5-2.9-0.7-4.2-0.7c-5.6,0-9.7,3.9-9.7,9.9c0,4.5,0.1,9.1,0.2,13.6c0,1.7,1.7,4,3.3,4.9c9.1,5.4,18.6,9.2,28.7,9.2c4.3,0,8.7-0.7,13.2-2.2c9.5-3.2,19.3-5.8,28.4-10c42.7-19.8,78.8-49.1,113.3-80.5C984.9,744.5,986.1,741.5,986.2,739.1z"/><path d="M198.4,799.3c-0.4,0-0.8,0.1-1.2,0.2c-2.4,0.8-4.7,1.6-6.9,2.3c-4.4,1.4-8.8,3-13.3,3.8c-1,0.2-2.1,0.3-3.2,0.3c-1.9,0-3.7-0.3-5.4-0.9C121.2,787.6,76.8,765,37,734c-3.7-2.9-7.3-5.9-10.9-9c-5.7-4.8-10.6-8.5-11.3-8.5c0,0-0.1,0-0.1,0c-0.3,0.3-0.5,0.5-0.5,0.8c-0.1,5.4-0.8,10.9-0.1,16.2c0.7,4.7,1.5,11,4.6,13.6c26.9,21.6,53.8,43.1,81.8,63.2c17.2,12.3,36.8,20.6,57.5,26.3c4.7,1.3,9.3,1.9,13.7,1.9c10.2,0,19.8-3.3,29-8.9c1.7-1,3.2-3.7,3.2-5.6c0.2-4.5,0.2-8.9,0.2-13.4C204.1,804,201.6,799.3,198.4,799.3z"/><path d="M473.5,534.1c2.9,2.3,5.3,3.3,7.1,3.3c4,0,5.2-4.6,2-11.7c-7.4-16.1-14.9-32.3-22.5-48.8c-4.4-9.5-6.1-16.3-4.2-16.3c0.2,0,0.4,0.1,0.6,0.2c0.2,0.1,0.5,0.2,0.8,0.2c3,0,8.5-6.8,12.9-16.3c2.2-4.7,4.4-9.5,6.6-14.2c4.8-10.3-0.5-20.1-11.7-21.7c-15.7-2.3-31.2-4.6-46.7-6.9c-1-0.1-2-0.2-2.9-0.2c-9.8,0-17.1,7.5-14.6,17.5C410.7,457.9,444.2,510.9,473.5,534.1z"/><path d="M523.2,524.9c-3.1,6.7-2.5,10.5,0.7,10.5c1.7,0,4.3-1.2,7.5-3.7c37-29.3,58.7-68.3,71.7-113.3c2.9-9.9-2.7-17-12-17c-1,0-2.1,0.1-3.1,0.2c-15.9,2.5-31.6,4.9-47.3,7.3c-11.3,1.8-16.5,11.5-11.7,21.8c2.1,4.6,4.2,9.1,6.3,13.6c4.4,9.6,10,16.7,13,16.7c0.2,0,0.4,0,0.6-0.1c0.2-0.1,0.4-0.1,0.5-0.1c2,0,0.3,7.1-4.2,16.7C537.7,493.6,530.5,509.3,523.2,524.9z"/><path d="M272.6,640.6c-7.6,23.6,2.3,43.2,19.1,61.4c6.3,6.8,9.3,10.8,7.4,10.8c-0.5,0-1.1-0.2-2.1-0.7c-0.7-0.3-1.3-0.4-1.9-0.4c-4.2,0-6.6,6.8-5.7,16.8c0.9,9.8,1.9,19.2,3.4,28.6c1.1,7.3,4.3,14.5,7.5,21.3c1.3,2.8,4.7,6,7.6,6.6c3.4,0.6,6.8,0.9,10.1,0.9c0.1,0,0.3,0,0.4,0c2.6,0,5.2-0.2,7.7-0.6c0.5-0.1,0.7-0.4,1.1-0.5c7.4-1.9,10-8.7,7.8-14.8c-0.5-1.2-0.8-2.5-1.7-3.7c-3.3-4.2-6.7-8.4-10.3-12.2c-5.5-5.9-7-10.9-1-17.1c4.4-4.6,4.5-9.4,2.1-15.5c-3.6-9.3-6-19.1-8.5-28.9c-4.2-16.7-5.8-33.3,5.8-48.2c0.1-0.2,0.1-0.4,0-0.8c0-0.2-0.1-0.3-0.2-0.3c-0.1,0-0.3,0.1-0.5,0.4c0,0,0,0-0.1,0c0,0,0,0,0,0c-1,0-8.9-4.1-18.2-9.6c-1-0.6-2-1.1-2.9-1.7c-3.3-1.9-7-2.9-10.6-2.9C281.7,629.7,274.9,633.4,272.6,640.6z"/><path d="M502.7,542.2c3.1,0,6.2-2.6,8.6-7.7c6-13.1,11.9-25.8,17.8-38.4c4.8-10.3,8.2-18.9,7.7-19.3c0,0,0,0-0.1,0c-0.9,0-7.4,5.5-11.4,14.8c-2.5,5.6-4.6,8.4-5.5,8.4c-0.6,0-0.7-1.4,0.1-4.1c1.5-5,0.7-8.1-1.7-8.1c-0.8,0-1.7,0.3-2.8,1c-2.9,1.8-5.6,3.3-8.4,4.6c-1.3,0.6-3.1,1.1-4.8,1.1c-0.9,0-1.8-0.1-2.4-0.5c-5.2-2.9-10.3-5.9-15.4-8.9c-8.4-5.1-11.1-17.4-6.1-27.6c1-2.1,2-4.1,3.1-6.2c5-10.1,9.5-18.1,10-18.1h0c0.5,0.2-2.3,9-6.1,19.8c-0.6,1.7-1.2,3.3-1.8,5c-3.8,10.7-4,20.7-0.4,22.4c2.2,1,4.4,1.9,6.6,2.8c3.7,1.5,8.1,4.6,11.4,4.6c0.5,0,0.9-0.1,1.3-0.2c6.5-2,12.9-4.5,19.3-7.1c10.5-4.3,15.1-16.2,10.4-26.6c-6.9-14.9-13.7-29.7-20.6-44.8c-2.4-5.2-5.5-7.8-8.6-7.8c-3.1,0-6.2,2.6-8.6,7.8c-9.4,20.4-18.5,40.1-27.5,59.8c-0.6,1.2-0.4,3.2,0.1,4.5c8.9,20,17.9,40,27.3,60.9C496.4,539.6,499.5,542.2,502.7,542.2L502.7,542.2z"/><path d="M725.2,640.1c-2.3-5.8-7.7-9-14-9c-3.3,0-6.9,0.9-10.4,2.8c-0.7,0.4-1.4,0.7-2.1,1.1c-7.8,4.3-10.1,12.2-10,20.9c0,2.4,0.2,4.9,0.6,7.3c1.2,7.5,0.3,15.5-1.6,23.7c-2.4,10.6-4.7,21.3-8.7,31.4c-3.3,8.3-3.2,15,2.9,21.5c3.7,3.9,3,7.2-0.4,11.2c-3.9,4.6-7.7,9.3-11.6,14.2c-1.5,1.9-2.8,3.8-3.8,5.6c-3.2,5.6-3.7,10.3-1,11.5c2.4,1,4.6,1.8,6.8,2.1c5.4,0.8,9.7,1.3,13.5,1.5c0.8,0,1.8,0.2,2.6,0.2c3.5,0,6.2-0.5,8.5-1.6c5.6-2.7,8.5-9,11.6-22.1c0.2-1,0.3-2,0.5-3c2.2-10.1,3.3-20.4,4.3-31.2c0.1-0.9,0-1.7,0-2.6c0.3-8.4-1.9-14-5.7-14c-0.6,0-1.3,0.1-2,0.5c-2.4,1.1-4.2,1.6-5.4,1.6c-1.4,0-1.7-0.8-0.4-2.2c1.4-1.6,3-3,4.7-4.3c10.8-8,17.2-18.6,22.1-30.3c0.1-0.3,0.2-0.5,0.3-0.8c1.6-3.8,3-7.8,4.4-11.8c0.8-2.4,0.9-5.6,0-7.9C729.4,650.8,727.3,645.4,725.2,640.1z"/><path d="M584.3,881.8c-2.7,0-5.8,1.1-9.1,3.4c-24.8,17.6-49.5,26.4-74,26.4c-25.2,0-50.3-9.2-75.5-27.4c-3.6-2.6-6.9-3.9-9.7-3.9c-4.4,0-7.4,3.2-7.9,9.3c-0.5,6.3-1.1,12.4-1.9,18.3c-0.8,5.9,0.6,8.1,6.4,9.5c30.6,7,61.3,11.1,92.3,11.1c15.6,0,31.3-1,47.1-3.3c8.2-1.2,16.4-2.8,24.6-4.6c11.1-2.4,19-13.5,17.7-24.8c-0.1-0.9-0.2-1.9-0.3-2.8C592.9,885.6,589.3,881.8,584.3,881.8z"/><path d="M291.3,596.2c-1.5,3.7-3,7.6-4.5,11.6c-0.6,1.6,0.2,4.7,1.4,5.6c4.6,3.3,9.2,6.5,13.8,9.6c3.7,2.5,7.5,3.7,10.6,3.7c3.4,0,6-1.4,7.1-4.3c1.7-4.4-1-12.1-6.1-19c-1.8-0.9-3.5-2.1-4.9-3.6c-1.4-1.5-2.7-3.2-4-4.9c-2.6-1.7-5.2-2.8-7.4-2.8C294.7,592.1,292.4,593.4,291.3,596.2z"/><path d="M303.7,583.3c1.7,3.3,4,6.1,6.1,8.9c1,1.3,1.7,2.9,2.8,4c1.3,1.5,2.8,2.3,4.3,2.8c1,0.4,2.1,0.7,3.1,0.7c3.9,0,7.3-2.7,8.4-7c1.8-7.1-4.6-17.6-10-27c-2.9-4.9-5.6-7.6-8.1-7.6c-2.3,0-4.5,2.2-6.5,6.8C301.3,570.6,300.1,576.4,303.7,583.3z"/><path d="M691.1,560.1c-2.9,0-6.5,2.6-9.7,7.4c-5.5,8.3-8.7,20.2-7,26.6c1,3.8,4.1,6.2,7.7,6.2c1,0,2-0.3,2.9-0.6c1-1.2,2-2.6,3.1-3.6c1.1-1,2.3-1.6,3.5-2.4c2.2-2.7,4.5-5.4,6.1-8.7c1.4-2.8,3.2-6.5,2.4-9.1c-1.2-4-2.7-8-4.1-11.8C694.9,561.4,693.1,560.1,691.1,560.1z"/><path d="M702.8,594.4c-2.3,0-4.9,1.2-7.5,2.9c-1.2,0.8-2.4,1.4-3.6,2.6c-1.4,1.3-2.6,2.8-3.7,4.3c-4.8,6.3-7.2,13.5-5.4,17.9c1.3,3.2,4.4,4.9,8.1,4.9c2.5,0,5.2-0.8,7.9-2.4c3.9-2.4,7.9-4.9,11.7-7.5c1.8-1.2,3.9-4.8,3.4-6.4c-1.3-4-2.7-7.9-4.1-11.7C708.2,595.9,705.8,594.4,702.8,594.4z"/><path d="M370.9,558.8c4.6-2.2-0.1-4.3-11.2-6.9c-6.6-1.6-13.2-3.1-20-4.8c-5-1.2-9.5-1.8-13-1.8c-4.2,0-6.7,0.8-6.5,2.5c0.2,2.1,1.3,3.4,2.7,3.4c0.6,0,1.2-0.2,1.9-0.7c1.5-1.2,2.9-2.1,4.1-2.1c0.1,0,0.2,0,0.3,0c8.1,1.2,16.4,2.7,24,5.7c6,2.4,9.2,8.2,5.7,14.8c-2.2,4.2-5.7,5.8-9.6,5.8c-2,0-4-0.4-6.1-1.1c-1.8-0.6-3.6-1.4-5.5-2.3c-0.3-0.2-0.6-0.3-0.7-0.3c-1.2,0,3.2,4.8,12.6,8.6c3.6,1.4,7.4,2.6,11.2,3.4c2.5,0.6,4.6,0.8,6.4,0.8c5.9,0,7.2-2.9,2.9-6.4c-4-3.2-4.9-6.6-4.1-11.4C366.6,562,368.4,560,370.9,558.8z"/><path d="M634.1,583.5c1.7,0,4-0.2,6.9-0.7c2.8-0.5,5.6-1.1,8.4-1.9c10-3.1,14.6-8.5,13-8.5c-0.1,0-0.3,0-0.5,0.1c-1.8,0.7-3.5,1.4-5.3,1.7c-1.3,0.3-2.6,0.4-3.9,0.4c-4.2,0-7.9-1.7-10-6.2c-2.8-5.8-0.1-10,4.4-13.3c0.2-0.2,0.4-0.4,0.6-0.5c1.7-1.2,3.5-2.2,5.4-3.3h0c0,0,0.1-0.1,0.1-0.1c1.3-0.8,1.1-1.1-0.2-1.1c-1.3,0-3.9,0.4-7.1,1c-1.4,0.3-2.7,0.5-4.4,0.9c-9.6,2.2-14.6,5.6-11.3,7.7c2.3,1.4,4.3,2.9,4.9,4.9c2,6,0.5,9.9-2.6,12.8C628.3,581.5,628.8,583.5,634.1,583.5z"/><path d="M555.5,577.2c0.6-0.2,1.2-0.4,1.7-0.6c3.6-1.4,7-2.6,10.3-2.6c3.7,0,7.3,1.5,10.7,5.8c1.3,1.6,3.4,2.5,5.7,3.3c0.5,0.2,0.9,0.2,1.1,0.2c1.7,0-0.6-3.1-0.8-9.1c-0.2-5.5-2.3-10.4-8.5-10.4c-1.7,0-3.6,0.4-5.9,1.2c-0.1,0-0.1,0-0.2,0C559.2,568.9,554.7,577.2,555.5,577.2C555.5,577.2,555.5,577.2,555.5,577.2z"/><path d="M426.3,578.1c3.6-1.7,7.5-3.3,11.4-3.5c0.1,0,0.2,0,0.3,0c1.8,0,3.6,0.6,5.8,1.4c0.3,0.1,0.5,0.2,0.7,0.2c1.9,0-1.9-5.7-11.2-10.5c-0.5-0.3-1-0.5-1.5-0.7c-2.3-1-4.2-1.4-5.8-1.4c-5.8,0-7.7,5.6-8.2,11c-0.4,5.3-2,8-0.8,8c0.4,0,1-0.2,1.9-0.7C421.5,580.6,423.8,579.2,426.3,578.1z"/><path d="M382,571.6c2.2-3.4,7.2-2,7.6-2.7c0.4-0.7-1.2-2.5-3.7-4c-1.5-0.9-3-1.6-4.4-1.6c-0.1,0-0.3,0-0.4,0c-2.4,0.2-6.1,4.3-6.1,6.6c0,1.5,0.9,3.1,2,4.6c0.5,0.7,1,1,1.4,1C379.5,575.5,380.5,573.9,382,571.6z"/><path d="M620.3,563.3c-1.4,0-2.9,0.8-4.4,1.7c-2.3,1.5-4.1,3.3-3.9,4c0,0.2,0.4,0.2,0.9,0.2c0.3,0,0.7,0,1.1,0c1.6,0,3.8,0.2,5.6,1.9c2.2,2.2,2.9,4.3,3.9,4.3c0.3,0,0.7-0.3,1.2-0.8c1.4-1.6,2.3-3.2,2.2-4.8c-0.1-2.3-3.9-6.3-6.2-6.4C620.5,563.3,620.4,563.3,620.3,563.3L620.3,563.3z"/><path d="M678.8,552c0.4,0.4,0.7,0.6,1,0.6c0.9,0,1.6-1.4,1.9-4c0.4-2.6-2.1-4.2-6-4.2c-0.2,0-0.4,0.1-0.6,0.1c-1.2,0-2.5,0.2-3.9,0.5c-6.1,1.5-7.6,3.1-3.7,3.1c0.2,0,0.3,0,0.5,0c0.1,0,0.2,0,0.3,0c0.3,0,0.6,0,0.8,0c2.3,0,4.6,0.3,6.7,1.5c0,0,0.1,0,0.1,0C677,550.2,678,551,678.8,552z"/></g></g><g></g><g></g><g></g><g></g><g></g><g></g><g></g><g></g><g></g><g></g><g></g><g></g><g></g><g></g><g></g></g>
</svg>